<?xml version="1.0" standalone="no"?>
<!DOCTYPE svg PUBLIC "-//W3C//DTD SVG 20010904//EN"
 "http://www.w3.org/TR/2001/REC-SVG-20010904/DTD/svg10.dtd">
<svg version="1.0" xmlns="http://www.w3.org/2000/svg"
 width="1066.000000pt" height="800.000000pt" viewBox="0 0 1066.000000 800.000000"
 preserveAspectRatio="xMidYMid meet">
<metadata>
Created by potrace 1.16, written by Peter Selinger 2001-2019
</metadata>
<g transform="translate(0.000000,800.000000) scale(0.100000,-0.100000)"
fill="#000000" stroke="none">
<path d="M6313 6599 c-45 -21 -84 -43 -88 -49 -3 -5 -16 -10 -27 -10 -12 0
-19 -3 -16 -6 3 -3 -9 -22 -28 -42 -50 -55 -69 -118 -55 -190 6 -31 13 -73 15
-92 3 -19 11 -78 19 -131 9 -52 15 -102 15 -110 -2 -34 3 -49 16 -49 24 0 73
-33 89 -60 8 -14 18 -43 21 -65 5 -39 5 -39 -10 9 -9 27 -19 44 -23 38 -4 -7
-19 -8 -45 -2 -34 7 -41 5 -62 -15 -13 -13 -24 -33 -24 -45 0 -38 48 -100 77
-100 7 0 13 -4 13 -10 0 -14 -50 9 -82 39 -15 13 -31 21 -35 18 -9 -9 35 -55
71 -74 22 -12 26 -17 15 -24 -8 -5 -9 -9 -3 -9 7 0 15 -16 18 -35 8 -39 17
-48 41 -39 13 6 16 17 13 60 -3 50 -1 54 19 54 16 0 25 8 29 25 3 14 12 25 18
25 22 0 34 45 42 146 3 55 11 108 17 119 6 11 41 61 78 110 38 50 75 107 84
128 8 20 17 37 19 37 1 0 16 -4 32 -9 16 -5 55 -17 86 -26 l57 -15 -19 -33
c-18 -29 -27 -77 -15 -77 2 0 25 10 50 22 l45 22 47 -23 c53 -26 63 -20 63 43
0 33 2 37 15 26 9 -7 26 -9 46 -5 l32 7 -7 -87 -7 -86 45 -97 c62 -133 80
-207 64 -258 -17 -50 -80 -98 -161 -122 -47 -15 -65 -26 -75 -46 -7 -14 -17
-26 -23 -26 -5 0 -9 -9 -9 -20 0 -26 -8 -25 -62 9 -44 28 -108 106 -108 133 0
7 -5 20 -11 28 -19 26 -1 -76 20 -118 22 -42 78 -96 110 -107 27 -8 27 -13
-10 -69 -39 -59 -102 -110 -154 -126 -45 -13 -135 -2 -186 24 -16 8 -27 10
-24 5 24 -38 165 -64 235 -43 71 21 209 179 210 240 1 33 52 81 106 98 79 25
143 71 160 113 22 51 6 130 -51 253 -24 52 -45 113 -47 135 l-3 40 125 6 c229
12 374 49 511 129 73 43 139 109 139 139 0 28 -73 37 -169 22 -42 -6 -95 -11
-118 -11 -49 0 -179 -19 -208 -30 -54 -21 -184 -35 -330 -35 -141 0 -168 3
-233 24 -65 21 -77 22 -120 11 -26 -6 -56 -16 -67 -20 -11 -5 -40 -11 -65 -14
-25 -2 -63 -8 -85 -12 -32 -5 -38 -4 -28 6 7 8 9 20 3 35 -18 47 -22 143 -10
197 14 58 37 109 54 120 6 4 8 9 6 11 -3 3 -42 -12 -87 -34z"/>
<path d="M5225 5437 c-23 -56 -20 -67 19 -67 18 0 38 -6 44 -13 12 -14 19
-193 9 -204 -3 -3 -27 2 -52 11 l-47 15 7 -26 c3 -15 13 -42 21 -61 14 -35 22
-36 95 -16 9 3 23 -1 30 -9 28 -26 93 -61 87 -46 -4 10 2 14 21 16 14 1 71 4
126 7 55 3 114 8 130 11 71 14 166 81 181 127 3 10 10 18 15 18 5 0 9 9 9 19
0 21 10 26 79 36 24 4 51 15 61 25 17 17 16 18 -28 24 -24 3 -70 6 -100 6 -42
0 -62 5 -86 24 -39 29 -216 89 -322 110 -44 8 -126 18 -182 22 l-102 7 -15
-36z"/>
<path d="M6228 5262 c-46 -39 -57 -54 -63 -87 -7 -45 -10 -53 -55 -146 -31
-64 -84 -127 -183 -217 -26 -23 -47 -47 -47 -52 0 -5 -38 -33 -85 -61 -73 -45
-135 -102 -135 -124 0 -4 -8 -19 -19 -33 -10 -15 -21 -38 -24 -52 -6 -26 -64
-60 -100 -60 -36 0 -68 -25 -92 -73 -14 -28 -23 -53 -20 -55 2 -2 23 3 46 12
23 9 44 15 46 12 6 -5 -31 -69 -103 -181 -25 -38 -52 -85 -60 -103 l-15 -33
-32 19 c-18 11 -59 34 -92 52 -33 18 -64 36 -70 40 -5 4 -41 25 -80 45 -103
56 -108 58 -140 81 -17 12 -54 36 -84 54 l-54 31 -23 -28 c-13 -15 -23 -35
-24 -42 0 -8 -11 -26 -24 -40 -13 -15 -34 -46 -47 -71 -13 -25 -30 -51 -38
-59 -18 -20 -10 -138 13 -173 12 -18 13 -27 6 -30 -13 -4 104 -118 121 -118 6
0 38 -20 72 -44 34 -23 83 -53 109 -66 47 -23 101 -70 81 -70 -5 0 -13 3 -17
7 -4 5 -85 8 -179 9 -95 1 -186 6 -202 11 -28 9 -32 8 -42 -14 -10 -21 -9 -25
13 -33 16 -7 24 -17 24 -34 0 -13 7 -29 15 -36 8 -7 15 -17 15 -23 0 -5 -9 -2
-20 8 -11 10 -20 26 -20 35 0 10 -7 23 -15 30 -26 21 -18 -11 14 -62 26 -41
35 -47 81 -57 69 -15 90 -14 90 4 0 9 6 15 13 14 28 -4 37 2 37 26 0 14 -5 25
-11 25 -5 0 -7 5 -4 10 10 15 25 2 25 -22 0 -21 0 -21 21 -2 22 19 22 19 9 -2
-10 -17 -10 -29 3 -70 8 -27 18 -62 22 -78 4 -21 9 -26 14 -17 5 7 2 34 -5 59
-21 69 -19 75 39 99 92 39 87 40 87 -3 -1 -22 -5 -59 -11 -84 -21 -101 -22
-110 -9 -110 7 0 23 -11 36 -25 18 -20 28 -23 46 -16 13 5 30 16 37 25 7 9 20
16 27 16 7 0 28 9 45 19 17 11 38 17 45 14 10 -4 14 4 14 26 0 17 3 31 8 31
12 -1 42 -26 42 -36 0 -5 11 -11 25 -12 30 -2 111 -38 120 -52 3 -5 11 -10 16
-10 6 0 8 4 5 8 -7 12 81 55 116 56 15 1 28 4 28 7 0 6 -77 98 -91 109 -10 8
-72 108 -109 175 -53 96 -75 127 -124 177 l-47 47 25 63 c13 35 26 70 29 79 4
12 13 15 31 12 19 -4 26 -1 26 11 0 9 15 40 34 69 18 28 66 105 106 171 43 68
83 123 97 129 18 8 23 18 23 48 0 20 4 39 9 41 5 2 30 38 56 81 26 43 59 85
74 94 14 9 50 31 78 50 29 18 55 33 57 33 3 0 10 -19 16 -42 35 -140 88 -263
140 -321 28 -33 31 -34 68 -24 22 6 43 19 48 30 5 11 18 25 29 31 11 6 39 24
63 39 35 23 46 26 58 16 11 -9 18 -8 34 6 28 26 25 56 -10 89 -55 51 -92 145
-105 261 -3 33 -18 106 -32 163 -23 96 -24 108 -12 167 12 62 15 66 71 106 54
39 66 59 42 65 -5 2 -34 -18 -66 -44z"/>
<path d="M4981 4727 c-22 -45 -46 -155 -37 -165 3 -3 6 3 6 13 0 14 11 8 45
-26 25 -24 45 -49 45 -54 0 -6 14 -19 30 -28 17 -10 30 -21 30 -25 0 -4 12
-20 26 -37 30 -35 39 -27 49 44 18 131 26 157 53 168 40 18 146 57 154 58 3 0
10 3 14 8 17 17 -29 4 -114 -32 l-91 -39 -24 21 c-27 25 -52 46 -118 100 l-47
38 -21 -44z"/>
<path d="M6463 3690 c-30 -18 -37 -32 -36 -68 1 -9 -6 -12 -22 -8 -13 3 -27 2
-30 -4 -3 -6 4 -10 17 -10 13 0 39 -14 58 -31 31 -28 38 -31 81 -26 42 5 48 4
53 -16 11 -43 7 -57 -18 -57 -12 0 -38 -5 -55 -11 -30 -11 -32 -15 -27 -42 3
-17 8 -33 11 -35 2 -2 22 3 45 12 22 9 48 16 58 16 23 0 47 59 27 66 -21 8
-27 64 -10 90 18 28 19 75 3 96 -41 50 -102 61 -155 28z"/>
<path d="M2687 3613 c-28 -27 16 -133 105 -255 119 -164 126 -180 86 -218 -22
-20 -47 -29 -136 -49 -56 -12 -65 -21 -21 -21 49 0 166 34 189 55 36 33 25 65
-64 191 -126 177 -164 264 -121 280 8 4 12 10 9 15 -6 11 -38 12 -47 2z"/>
<path d="M6226 3547 c54 -59 113 -165 135 -242 23 -82 18 -275 -10 -355 -86
-250 -247 -416 -414 -428 -45 -3 -65 -8 -58 -15 5 -5 38 -8 73 -5 88 5 167 45
243 123 167 168 248 426 201 637 -28 124 -121 282 -190 322 -23 13 -19 6 20
-37z"/>
<path d="M8031 3554 c65 -73 75 -123 39 -203 -24 -52 -143 -172 -222 -224 -32
-21 -58 -42 -58 -48 0 -22 38 -5 109 48 150 113 221 204 221 283 0 61 -36 129
-81 154 l-34 19 26 -29z"/>
<path d="M7277 3444 c-172 -26 -417 -106 -417 -135 0 -5 -9 -9 -20 -9 -11 0
-20 -4 -20 -10 0 -19 59 -10 87 14 35 30 170 78 294 104 122 27 334 46 418 38
36 -4 91 -9 121 -11 l55 -4 -60 14 c-77 18 -339 18 -458 -1z"/>
<path d="M7662 3388 c5 -28 -48 -150 -139 -318 -187 -346 -200 -391 -133 -455
34 -33 40 -25 10 12 -41 52 -31 80 140 402 126 239 163 328 149 354 -11 20
-31 23 -27 5z"/>
<path d="M6951 3145 c-1 -22 -8 -51 -17 -64 -21 -30 -77 -53 -109 -45 -18 4
-37 -1 -65 -20 -22 -14 -40 -30 -40 -34 2 -26 31 -126 40 -138 13 -15 95 -20
85 -5 -3 5 9 8 27 6 143 -15 170 -16 164 -7 -3 6 2 8 12 5 14 -3 21 8 36 51
11 31 16 59 12 64 -4 4 -87 7 -183 7 l-175 0 33 28 c28 23 41 27 68 23 86 -13
155 71 121 149 -7 16 -9 11 -9 -20z"/>
<path d="M8742 3151 c7 -12 16 -21 20 -21 13 0 49 -70 42 -81 -4 -7 -3 -9 3
-6 19 12 22 -21 13 -125 -10 -115 -11 -122 -46 -194 -29 -60 -78 -114 -154
-171 -93 -69 -153 -95 -233 -101 -52 -4 -65 -8 -47 -13 107 -31 285 49 404
182 60 66 72 90 90 175 27 129 29 199 6 252 -21 48 -61 96 -93 113 -16 9 -17
8 -5 -10z"/>
<path d="M5687 3123 c14 -50 5 -146 -22 -238 -31 -103 -43 -209 -26 -219 20
-13 13 -64 -11 -77 -13 -7 -25 -15 -28 -19 -3 -4 -34 -19 -70 -33 -48 -19 -60
-27 -47 -33 34 -13 186 62 200 99 3 7 -1 24 -9 38 -20 37 -17 83 17 219 32
129 39 232 20 269 -17 31 -33 27 -24 -6z"/>
<path d="M4963 3076 c-1 -28 -17 -99 -37 -158 -36 -110 -59 -185 -61 -203 0
-5 -4 -33 -9 -61 -5 -32 -3 -67 4 -93 9 -36 9 -47 -5 -68 -16 -23 -20 -24 -78
-19 -42 4 -55 3 -42 -3 11 -5 47 -10 81 -10 54 -1 62 1 74 24 10 20 11 32 0
70 -16 56 -5 117 51 297 59 191 68 259 35 271 -8 3 -12 -12 -13 -47z"/>
<path d="M2381 3091 c-94 -33 -140 -80 -148 -155 -7 -62 17 -122 68 -172 24
-23 37 -30 31 -18 -6 11 -19 27 -28 35 -45 37 -59 151 -25 203 25 37 92 82
145 98 47 14 162 17 221 5 l40 -7 -45 15 c-63 21 -192 19 -259 -4z"/>
<path d="M6156 3048 c-102 -90 -188 -237 -188 -321 0 -30 5 -55 14 -64 13 -13
15 -8 15 39 0 92 58 197 170 311 37 38 53 61 47 67 -7 7 -27 -4 -58 -32z"/>
<path d="M9570 3062 c0 -16 -13 -64 -29 -108 -32 -86 -96 -247 -111 -279 -5
-11 -23 -56 -40 -100 -17 -44 -38 -96 -47 -115 -40 -85 -116 -328 -107 -341
10 -18 32 5 39 39 10 55 84 255 181 489 112 271 153 386 147 417 -7 36 -33 34
-33 -2z"/>
<path d="M4743 3065 c-84 -36 -268 -235 -314 -340 -16 -37 -18 -49 -8 -67 l12
-23 10 25 c32 84 48 112 98 175 99 123 217 225 261 225 11 0 16 5 13 10 -8 14
-34 12 -72 -5z"/>
<path d="M8103 2970 c14 -16 28 -43 32 -60 8 -37 -2 -105 -22 -144 -17 -33
-96 -114 -135 -139 -191 -120 -486 -198 -647 -171 -75 12 -70 -1 7 -17 192
-39 584 81 737 227 24 23 53 61 65 84 43 85 35 189 -17 230 -38 30 -48 24 -20
-10z"/>
<path d="M6523 2943 c-40 -8 -24 -23 25 -24 l47 0 -50 -20 c-27 -11 -53 -26
-57 -32 -15 -23 -8 -34 17 -29 18 3 25 0 25 -12 0 -20 -39 -37 -59 -26 -10 5
-21 -6 -38 -39 -12 -25 -21 -52 -18 -60 3 -7 0 -21 -7 -29 -7 -9 4 -3 24 12
21 16 36 32 33 36 -6 9 19 20 46 20 11 0 18 4 15 9 -3 4 7 13 22 20 25 11 26
10 8 -4 -28 -21 -14 -19 36 8 24 12 43 28 42 35 -1 6 -2 19 -3 28 -1 12 -8 14
-30 9 -36 -8 -53 20 -18 31 38 11 49 24 35 42 -7 8 -11 18 -8 21 6 7 -57 10
-87 4z"/>
<path d="M5430 2894 c-21 -14 -201 -246 -241 -311 -7 -13 -35 -30 -61 -40 -27
-9 -47 -22 -44 -28 4 -12 15 -10 74 12 34 13 53 31 100 95 140 195 179 244
205 256 15 7 27 17 27 23 0 14 -32 10 -60 -7z"/>
<path d="M3981 2788 c-33 -57 -65 -108 -71 -115 -5 -7 -10 -16 -10 -20 0 -5
-21 -32 -46 -60 -31 -36 -58 -56 -85 -65 -32 -9 -37 -13 -24 -20 25 -14 80 9
122 51 36 37 193 288 193 310 0 36 -27 8 -79 -81z"/>
<path d="M3396 2798 c-113 -198 -145 -238 -211 -269 -31 -14 -36 -19 -22 -25
52 -20 134 58 226 215 97 166 95 161 73 161 -12 0 -33 -26 -66 -82z"/>
<path d="M9255 2744 c-43 -63 -46 -67 -103 -174 -39 -75 -54 -88 -132 -118
-20 -8 -22 -11 -9 -16 9 -4 41 3 73 14 55 21 57 23 97 103 23 45 51 96 64 112
26 35 65 110 65 125 0 23 -19 7 -55 -46z"/>
<path d="M5267 2441 c-9 -10 -42 -26 -73 -37 -30 -10 -59 -23 -64 -29 -4 -5
-13 -58 -19 -116 -14 -137 -14 -139 -65 -140 -22 -1 -70 -3 -106 -4 -36 -2
-84 0 -107 5 -24 4 -43 4 -43 0 0 -10 28 -16 100 -25 l56 -7 -16 -49 c-14 -46
-17 -48 -47 -45 -27 3 -32 0 -37 -26 -8 -39 -42 -36 -38 4 2 19 -3 27 -20 31
-12 4 -25 2 -29 -4 -3 -6 -9 -10 -13 -10 -17 2 -17 0 -5 -16 8 -10 9 -14 2
-10 -6 4 -14 3 -18 -3 -3 -5 0 -10 7 -11 7 0 3 -4 -9 -9 -16 -7 -38 -2 -80 15
-32 13 -104 41 -160 61 -57 20 -103 40 -103 44 0 4 -35 10 -77 14 -42 4 -85
12 -95 17 -11 6 -25 6 -35 1 -13 -8 -10 -11 18 -20 19 -6 63 -13 99 -16 65 -7
305 -86 282 -94 -6 -2 -45 4 -86 13 -41 9 -79 14 -85 11 -5 -3 -11 -3 -13 1
-4 9 -131 45 -170 48 -16 1 -41 3 -58 4 -30 1 -44 21 -15 21 11 0 10 5 -6 21
-14 14 -42 24 -86 30 -35 5 -73 13 -83 19 -21 11 -32 54 -17 69 12 12 -9 67
-29 75 -15 6 -56 -28 -47 -38 4 -3 2 -6 -4 -6 -6 0 -13 -9 -16 -20 -5 -19 -14
-20 -281 -20 l-276 0 0 -25 c0 -14 5 -25 10 -25 6 0 10 7 10 15 0 13 36 15
264 15 256 0 265 -1 263 -19 -1 -12 -11 -22 -26 -26 -28 -7 -385 -138 -443
-162 -34 -14 -36 -18 -26 -37 10 -17 13 -18 15 -5 2 8 29 25 61 36 31 12 138
51 237 87 99 37 185 64 192 62 14 -6 18 -36 6 -36 -5 0 -21 -12 -38 -28 -16
-15 -48 -43 -71 -62 -127 -109 -264 -233 -264 -238 0 -4 9 -13 19 -19 16 -10
18 -9 15 5 -2 11 30 46 99 105 56 48 129 113 162 143 81 74 96 84 123 77 20
-5 21 -7 8 -22 -8 -9 -31 -52 -51 -96 -21 -44 -64 -136 -96 -204 -33 -68 -59
-126 -59 -128 0 -1 6 -3 13 -3 7 0 54 87 105 197 50 108 98 205 106 215 24 28
48 23 45 -9 -5 -67 2 -466 8 -459 4 3 8 108 9 233 1 206 3 228 20 240 23 17
34 17 34 -1 0 -21 191 -426 201 -426 9 0 -14 54 -104 242 -86 179 -85 175 -48
183 23 5 36 1 53 -15 12 -11 24 -17 26 -12 1 5 14 7 27 4 19 -3 25 0 25 14 0
11 4 15 8 9 19 -27 55 -48 84 -51 57 -5 173 -32 227 -54 28 -11 59 -20 69 -19
9 0 -10 10 -43 21 -33 12 -54 23 -47 26 7 2 33 -3 59 -12 26 -9 62 -16 81 -16
27 0 33 -3 28 -16 -5 -12 -2 -15 9 -10 9 3 13 2 10 -4 -3 -6 -13 -10 -22 -10
-10 0 -14 -6 -10 -20 3 -10 0 -18 -5 -17 -12 2 -77 -85 -71 -96 2 -4 -1 -6 -9
-5 -7 2 -12 -3 -11 -9 2 -7 -2 -13 -8 -13 -18 0 -56 -35 -51 -48 2 -6 -3 -12
-11 -12 -8 0 -20 -7 -27 -15 -6 -8 -15 -13 -18 -12 -13 4 -104 -46 -109 -60
-3 -8 -13 -11 -24 -8 -12 4 -21 1 -25 -8 -3 -8 -13 -13 -22 -10 -10 2 -28 -5
-41 -16 -28 -24 -38 -26 -44 -8 -3 9 -8 9 -21 -2 -13 -11 -51 -14 -170 -13
-84 1 -165 6 -180 12 -35 13 -71 13 -41 0 11 -5 15 -9 8 -9 -19 -1 -43 11 -38
19 6 9 -42 23 -54 15 -5 -2 -14 2 -21 10 -7 8 -23 15 -37 15 -13 0 -22 3 -19
8 2 4 -7 12 -20 19 -13 6 -22 7 -18 2 3 -5 -2 -6 -10 -3 -9 3 -13 10 -10 15 3
5 0 10 -5 10 -6 1 -15 3 -21 4 -5 1 -15 3 -21 4 -5 0 -8 5 -5 10 3 5 -5 16
-18 24 -13 9 -30 23 -39 32 -9 8 -20 15 -24 14 -4 -1 -13 7 -18 18 -6 11 -15
18 -21 16 -7 -2 -14 3 -18 12 -3 10 -2 14 5 9 6 -3 5 3 -2 15 -8 12 -16 16
-20 10 -10 -16 -20 5 -13 25 4 12 2 15 -9 11 -8 -4 -17 1 -21 10 -4 11 -2 14
7 9 6 -4 2 4 -10 17 -13 14 -24 37 -25 52 -2 19 -6 23 -14 16 -9 -7 -11 -1 -9
23 2 24 -4 38 -19 51 -11 10 -15 15 -7 11 11 -5 13 -2 8 17 -4 13 -7 33 -8 44
0 17 -1 18 -7 3 -4 -10 -6 22 -5 70 1 48 5 96 9 105 4 10 7 38 8 63 1 28 6 44
14 44 6 0 12 4 12 9 0 35 -77 33 -82 -3 -3 -24 -43 -31 -43 -7 0 7 -10 17 -21
22 -14 5 -21 4 -20 -4 0 -7 -6 -52 -13 -100 -30 -183 22 -383 142 -547 223
-305 636 -443 1027 -344 241 62 447 211 560 406 30 53 50 76 60 73 8 -2 43 -9
78 -16 34 -6 62 -15 62 -19 0 -4 -7 -24 -15 -43 -8 -20 -15 -40 -15 -45 0 -11
30 -23 115 -49 33 -9 94 -38 135 -64 90 -55 193 -91 266 -93 35 -1 54 -5 54
-13 0 -36 -162 -17 -267 32 -31 14 -58 24 -59 22 -4 -3 112 -58 151 -72 41
-14 126 -24 160 -18 30 5 35 9 35 34 0 36 -38 67 -143 116 -72 34 -80 36 -88
20 -6 -9 -17 -17 -26 -17 -14 0 -14 2 1 19 32 36 -15 59 -49 25 -23 -23 -32
-8 -10 16 17 19 17 20 0 27 -11 3 -30 0 -47 -10 -22 -13 -28 -13 -28 -3 0 8
10 20 22 28 19 13 21 18 10 31 -18 22 -11 31 39 47 49 17 105 68 125 116 17
40 18 102 3 141 -5 15 -6 29 -2 30 5 2 36 19 69 39 68 40 133 97 191 169 23
28 53 57 67 65 14 7 26 22 26 32 0 18 -1 18 -16 4 -8 -9 -26 -19 -40 -22 -13
-3 -24 -10 -24 -14 0 -4 -30 -40 -66 -79 -71 -77 -146 -135 -159 -123 -5 4 -5
2 -2 -4 3 -6 -13 -20 -38 -32 l-44 -21 14 -35 c8 -20 15 -52 15 -73 0 -40 -31
-98 -45 -86 -4 5 -5 3 -2 -3 9 -16 -53 -69 -97 -84 -20 -6 -39 -10 -41 -8 -4
4 -9 57 -7 81 1 9 8 17 15 17 31 0 52 41 53 104 2 86 19 157 42 175 11 9 27
37 37 64 19 51 18 51 86 47 26 -1 50 3 53 9 5 7 -12 11 -52 11 -51 0 -60 3
-65 20 -3 12 1 24 11 30 15 8 15 9 1 10 -8 0 -30 16 -49 35 -39 40 -39 40 -63
16z"/>
<path d="M6155 2436 c-16 -13 -48 -30 -70 -38 -35 -14 -41 -21 -53 -64 -21
-73 -20 -265 2 -343 95 -347 401 -594 793 -641 292 -35 607 72 800 271 155
161 224 328 222 538 -1 136 -17 207 -44 203 -11 -2 -28 -11 -37 -19 -11 -10
-26 -13 -42 -9 -19 5 -26 2 -31 -14 -3 -11 -10 -20 -15 -20 -7 0 -7 -20 -1
-60 1 -3 6 2 11 10 7 12 10 8 10 -15 0 -23 -3 -27 -10 -15 -14 21 -13 -85 1
-111 10 -20 3 -86 -9 -74 -9 9 -31 -72 -26 -98 2 -12 2 -16 -2 -9 -10 22 -24
2 -18 -26 4 -20 3 -23 -5 -12 -8 12 -15 5 -33 -35 -12 -28 -21 -54 -20 -58 1
-5 -2 -6 -7 -3 -13 8 -34 -21 -25 -35 5 -9 2 -10 -10 -6 -14 5 -17 3 -13 -8 4
-8 1 -17 -5 -21 -7 -5 -8 -2 -3 7 8 12 6 12 -8 0 -9 -7 -14 -17 -11 -22 3 -5
2 -8 -3 -7 -4 2 -19 -5 -33 -16 l-25 -18 25 6 25 6 -25 -11 c-45 -20 -55 -27
-53 -38 2 -6 -4 -8 -12 -5 -8 4 -17 -1 -21 -9 -3 -9 -12 -13 -20 -10 -8 3 -14
0 -14 -6 0 -10 -27 -25 -55 -31 -5 -1 -17 -7 -25 -13 -35 -28 -58 -37 -63 -24
-4 9 -6 9 -6 0 -1 -7 -7 -10 -15 -7 -7 3 -16 -2 -19 -10 -4 -9 -14 -16 -24
-16 -16 0 -16 2 -3 11 12 8 10 9 -10 5 -14 -3 -49 -8 -77 -12 -29 -3 -50 -10
-47 -15 3 -5 -4 -9 -15 -9 -12 0 -21 5 -21 10 0 6 -18 10 -40 10 -22 0 -40 -4
-40 -10 0 -5 -8 -10 -17 -10 -15 0 -16 2 -3 10 12 8 9 10 -11 10 -15 0 -42 2
-60 5 -29 5 -30 4 -11 -4 31 -14 28 -23 -4 -11 -14 6 -36 10 -49 10 -13 0 -28
7 -33 16 -5 8 -27 18 -50 21 -23 3 -42 9 -42 13 0 10 -102 54 -119 51 -7 -1
-10 2 -6 8 3 6 1 11 -6 11 -6 0 -20 9 -30 21 -10 11 -22 18 -27 15 -6 -3 -15
1 -22 9 -7 8 -9 15 -4 15 4 0 -3 11 -16 25 -13 14 -30 23 -37 21 -7 -3 -10 1
-7 8 3 8 0 17 -7 22 -8 5 -10 3 -4 -6 5 -9 4 -11 -4 -6 -6 4 -9 11 -6 16 3 4
-6 22 -20 38 -14 17 -32 45 -40 64 -10 24 -14 28 -15 13 -2 -36 -42 56 -45
102 -5 60 -15 103 -26 103 -5 0 -4 11 1 26 8 19 6 29 -5 40 -19 20 -20 74 -1
74 9 0 15 21 20 70 4 39 12 70 18 70 6 0 8 13 6 29 -3 18 0 27 6 25 6 -2 16 7
22 20 10 21 8 23 -15 24 -14 0 -39 -10 -56 -22z"/>
<path d="M9437 2276 c-18 -114 -191 -316 -269 -316 -20 0 -24 -15 -8 -25 19
-12 119 43 168 92 89 90 151 206 137 260 -8 33 -22 28 -28 -11z"/>
<path d="M6937 2256 c-3 -8 5 -27 19 -43 28 -33 30 -55 8 -77 -26 -26 -62 -19
-98 19 -19 19 -40 35 -47 35 -11 0 -11 -2 1 -10 13 -9 13 -12 -3 -24 -16 -13
-16 -14 4 -19 11 -3 18 -10 14 -16 -3 -6 1 -11 9 -11 9 0 16 -7 16 -16 0 -8 5
-12 11 -9 6 4 17 -1 24 -11 9 -11 14 -14 15 -6 0 6 7 12 15 12 8 0 15 -6 15
-12 0 -8 5 -6 11 4 5 10 16 15 24 12 9 -4 15 0 15 10 0 9 7 16 15 16 9 0 12 6
9 15 -4 10 0 15 11 15 15 0 15 2 4 16 -10 12 -10 17 0 23 10 6 8 10 -5 15 -9
3 -14 9 -11 12 8 8 -26 42 -37 36 -5 -3 -15 3 -21 12 -11 14 -14 14 -18 2z"/>
<path d="M1051 2173 c-14 -17 -19 -33 -15 -47 13 -39 32 -48 101 -48 57 0 69
3 85 22 23 29 23 55 -2 80 -16 16 -33 20 -84 20 -58 0 -67 -3 -85 -27z"/>
<path d="M1532 2180 c-27 -25 -28 -50 -4 -80 17 -21 25 -23 132 -21 126 1 150
11 150 61 0 50 -25 60 -146 60 -97 0 -113 -2 -132 -20z"/>
<path d="M1982 2184 c-27 -19 -29 -64 -4 -87 17 -15 65 -17 479 -17 433 0 461
1 476 18 22 24 21 65 -1 85 -17 15 -64 17 -473 17 -395 0 -457 -2 -477 -16z"/>
<path d="M2270 1828 c-15 -16 -19 -30 -15 -48 9 -38 33 -50 100 -50 69 0 95
17 95 63 0 43 -24 57 -95 57 -54 0 -68 -4 -85 -22z"/>
<path d="M4933 1674 c-13 -34 21 -67 114 -111 99 -49 126 -48 139 2 4 17 11
22 22 18 13 -4 12 -1 -3 10 -22 18 -45 22 -45 8 0 -5 -17 0 -37 10 -21 11 -57
25 -81 31 -23 6 -47 19 -53 29 -12 23 -47 25 -56 3z"/>
<path d="M2017 1553 c-51 -6 -75 -40 -57 -83 9 -22 21 -31 47 -36 43 -8 109 0
128 16 30 25 9 100 -28 100 -7 0 -21 2 -32 4 -11 2 -37 1 -58 -1z"/>
</g>
</svg>
