<?xml version="1.0" standalone="no"?>
<!DOCTYPE svg PUBLIC "-//W3C//DTD SVG 20010904//EN"
 "http://www.w3.org/TR/2001/REC-SVG-20010904/DTD/svg10.dtd">
<svg version="1.0" xmlns="http://www.w3.org/2000/svg"
 width="1200.000000pt" height="1200.000000pt" viewBox="0 0 1200.000000 1200.000000"
 preserveAspectRatio="xMidYMid meet">

<g transform="translate(0.000000,1200.000000) scale(0.100000,-0.100000)"
fill="#000000" stroke="none">
<path d="M5695 10910 c-1217 -91 -2320 -593 -3165 -1440 -389 -390 -685 -804
-925 -1295 -270 -551 -418 -1088 -476 -1725 -17 -186 -14 -624 6 -823 87 -897
404 -1722 935 -2432 598 -801 1432 -1405 2375 -1720 539 -180 1022 -259 1595
-259 388 1 669 30 1051 109 616 129 1266 411 1786 776 1154 809 1886 2026
2054 3419 30 247 33 807 6 1048 -115 1015 -516 1924 -1180 2680 -107 122 -393
403 -512 503 -768 647 -1701 1041 -2705 1144 -183 19 -672 27 -845 15z m486
-2770 c62 -157 168 -426 235 -599 68 -173 128 -319 134 -325 7 -7 15 -7 24 -1
7 6 40 27 72 49 33 21 71 49 85 63 14 13 54 43 87 66 34 23 107 76 163 117
155 114 238 175 304 221 33 23 80 58 104 78 25 20 70 54 102 76 31 22 103 74
159 115 209 153 247 181 354 255 60 41 119 78 131 81 30 7 73 -31 128 -114 24
-37 60 -86 80 -109 19 -24 45 -60 58 -80 12 -21 32 -49 45 -63 12 -14 46 -59
76 -101 29 -42 72 -101 96 -132 l42 -57 38 14 c20 8 89 30 152 49 63 20 202
63 309 97 228 73 365 110 405 110 32 0 96 -43 96 -64 0 -7 9 -35 19 -62 11
-27 41 -119 66 -204 26 -85 57 -186 70 -225 13 -38 39 -122 58 -185 20 -63 61
-196 92 -295 31 -99 72 -232 91 -295 20 -63 49 -155 64 -205 35 -109 138 -438
173 -553 37 -124 16 -190 -68 -211 -90 -23 -144 21 -175 139 -6 25 -22 77 -35
115 -12 39 -39 124 -60 190 -20 66 -52 167 -70 225 -18 58 -48 152 -65 210
-18 58 -42 137 -55 175 -12 39 -39 124 -60 190 -20 66 -49 161 -65 210 -15 50
-45 144 -65 210 -21 66 -48 152 -60 190 -13 39 -28 89 -35 113 -13 49 -27 53
-105 23 -68 -26 -507 -161 -523 -161 -39 0 -10 -60 95 -199 39 -51 42 -91 11
-120 -51 -48 -97 -30 -160 62 -86 125 -133 186 -147 186 -8 1 -42 -8 -75 -18
-107 -35 -278 -89 -381 -121 -55 -17 -140 -44 -190 -60 -49 -15 -137 -43 -195
-60 -58 -18 -136 -43 -175 -55 -38 -13 -131 -42 -205 -65 -74 -23 -169 -52
-210 -66 -41 -13 -169 -54 -285 -90 -115 -36 -214 -69 -218 -73 -10 -10 40
-140 62 -163 9 -9 50 -28 91 -42 41 -13 219 -77 395 -141 176 -64 346 -125
379 -136 101 -33 146 -73 146 -130 0 -29 -36 -160 -61 -219 -17 -42 -71 -192
-156 -435 -20 -55 -48 -134 -64 -175 -15 -41 -45 -124 -67 -185 -21 -60 -58
-164 -81 -230 -83 -234 -106 -266 -190 -267 -68 -1 -121 53 -121 124 0 18 23
96 51 173 28 77 63 176 79 220 16 44 47 132 70 195 22 63 54 151 70 195 16 44
47 132 70 195 23 63 49 135 57 160 8 25 23 67 34 94 10 27 19 52 19 56 0 4
-37 21 -82 38 -46 16 -110 40 -143 52 -33 13 -96 35 -140 51 -44 15 -154 55
-245 88 -127 46 -168 57 -177 48 -6 -7 -154 -376 -329 -822 -174 -445 -319
-812 -321 -814 -2 -3 -8 0 -13 5 -6 6 -154 376 -330 824 -176 448 -323 817
-328 822 -5 5 -57 -8 -118 -27 -60 -20 -154 -50 -209 -67 -55 -17 -127 -39
-160 -50 -33 -11 -112 -35 -175 -54 -63 -20 -118 -40 -122 -47 -3 -6 0 -27 7
-46 7 -20 48 -148 90 -286 42 -137 85 -275 95 -305 11 -30 24 -75 30 -100 6
-25 19 -67 29 -95 11 -27 47 -140 81 -250 72 -232 74 -260 16 -312 -29 -27
-44 -33 -81 -33 -64 0 -105 38 -133 127 -21 63 -51 160 -123 393 -17 52 -43
136 -59 185 -15 50 -43 137 -61 195 -17 58 -47 152 -65 210 -66 209 -117 424
-109 457 8 32 63 70 125 87 30 8 127 37 215 66 88 28 212 67 275 86 63 20 153
49 200 64 47 15 110 35 142 44 31 9 58 22 61 29 41 93 76 192 70 198 -5 3 -28
13 -53 22 -25 8 -97 34 -160 57 -63 23 -151 55 -195 70 -129 47 -257 93 -470
171 -110 40 -240 87 -290 104 -139 50 -247 89 -400 145 -187 69 -226 81 -236
74 -5 -3 -47 -61 -95 -130 -97 -140 -120 -162 -156 -143 -56 29 -52 46 43 189
44 67 79 126 77 132 -4 11 -77 40 -283 113 -71 25 -178 64 -237 86 -59 21
-111 39 -116 39 -5 0 -35 12 -67 26 -31 15 -60 22 -65 18 -4 -5 -17 -36 -28
-69 -11 -33 -40 -112 -63 -175 -23 -63 -54 -151 -70 -195 -15 -44 -51 -143
-79 -220 -29 -77 -60 -165 -70 -195 -10 -30 -40 -111 -65 -180 -26 -69 -59
-161 -75 -205 -45 -127 -96 -272 -136 -380 -20 -55 -49 -136 -64 -181 -49
-143 -82 -184 -147 -184 -77 0 -133 50 -133 117 1 29 50 183 115 358 36 99 81
224 136 380 15 44 49 136 74 205 26 69 62 168 80 220 33 93 61 172 129 360 18
52 48 136 66 185 117 329 140 386 168 417 51 55 82 49 432 -79 96 -36 200 -73
230 -83 30 -10 111 -39 180 -65 177 -65 251 -88 260 -78 4 4 96 139 205 298
109 160 210 302 223 318 16 16 36 27 52 27 32 0 43 -7 495 -345 198 -147 498
-371 666 -497 169 -125 311 -228 317 -228 12 0 -6 -43 238 579 107 272 197
498 200 503 4 6 10 6 15 1 4 -4 58 -136 120 -293z m-3981 -3930 l0 -281 -67 3
-68 3 -3 265 c-1 146 0 270 3 277 3 9 26 13 70 13 l65 0 0 -280z m2160 155 l5
-120 45 78 c25 43 57 99 72 123 l28 44 69 0 c38 0 72 -3 75 -8 2 -4 -20 -49
-50 -100 -52 -88 -59 -112 -30 -112 7 0 23 -12 37 -26 23 -24 24 -33 27 -170
l3 -145 -68 3 -68 3 -5 95 -5 95 -67 3 -67 3 -3 -98 -3 -98 -67 -3 -68 -3 0
274 c0 150 3 277 7 281 4 4 34 6 68 4 l60 -3 5 -120z m1054 115 c21 -5 48 -18
60 -30 21 -21 22 -38 18 -265 0 -11 2 -73 4 -137 l5 -118 -65 0 -66 0 0 74 c0
96 -11 108 -89 104 l-56 -3 -3 -87 -3 -88 -64 0 -65 0 0 280 0 280 143 0 c78
0 160 -5 181 -10z m950 -13 c37 -25 46 -74 46 -262 0 -276 1 -275 -230 -275
l-152 0 -29 29 -29 29 0 215 0 215 25 31 c31 36 51 40 217 37 98 -2 132 -6
152 -19z m881 0 c4 -13 5 -46 3 -73 l-3 -49 -62 -3 -63 -3 -2 -202 -3 -202
-67 -3 -68 -3 0 206 0 205 -60 0 -60 0 0 75 0 75 190 0 190 0 5 -23z m855 -52
l0 -75 -135 0 -135 0 0 -30 0 -30 60 0 61 0 -3 -72 -3 -73 -57 -3 c-54 -3 -58
-5 -58 -27 l0 -24 133 -3 132 -3 3 -72 3 -73 -206 0 -205 0 0 280 0 280 205 0
205 0 0 -75z m865 52 c4 -13 5 -46 3 -73 l-3 -49 -120 -2 c-182 -4 -166 9
-163 -136 l3 -122 137 -3 c157 -3 152 0 146 -98 l-3 -49 -178 -3 c-110 -1
-185 2 -197 8 -46 24 -51 57 -48 280 4 281 -12 265 265 268 152 2 153 2 158
-21z m573 -84 l3 -103 69 0 69 0 3 103 3 102 65 0 65 0 3 -277 2 -278 -70 0
-70 0 0 100 0 100 -70 0 -70 0 0 -100 0 -101 -67 3 -68 3 -3 265 c-1 146 0
271 3 278 3 9 23 12 67 10 l63 -3 3 -102z m-5892 75 c23 -75 131 -518 126
-523 -3 -3 -35 -5 -72 -5 l-67 0 -9 33 c-9 31 -12 32 -66 35 -57 3 -57 3 -66
-30 -8 -33 -9 -33 -72 -36 -34 -2 -69 -1 -76 2 -11 4 23 155 117 509 l10 37
84 0 c78 0 84 -2 91 -22z m-764 -257 c2 -22 2 -45 0 -50 -2 -7 -43 -11 -108
-11 l-104 0 0 50 0 50 104 0 104 0 4 -39z"/>
<path d="M3946 7994 c-93 -136 -169 -253 -170 -262 0 -8 14 -20 34 -28 191
-71 296 -109 355 -128 39 -13 81 -28 95 -34 23 -11 228 -85 500 -182 153 -54
384 -137 470 -169 225 -84 273 -100 281 -95 14 8 40 76 35 89 -6 17 -1394
1050 -1414 1053 -12 1 -64 -67 -186 -244z"/>
<path d="M8053 8102 c-26 -21 -75 -57 -108 -81 -72 -50 -179 -129 -266 -193
-65 -48 -179 -132 -304 -223 -38 -28 -106 -78 -151 -111 -150 -110 -176 -129
-238 -173 -57 -41 -109 -79 -284 -210 -40 -30 -70 -56 -68 -59 3 -2 85 21 183
53 98 31 237 75 308 97 72 22 162 50 200 63 39 12 115 36 170 54 327 101 707
220 820 257 39 12 88 27 110 33 81 22 83 16 -115 286 -33 44 -85 117 -117 162
-33 47 -65 83 -75 83 -9 0 -38 -17 -65 -38z"/>
<path d="M6029 7157 c-22 -113 -36 -141 -74 -145 -53 -5 -75 -12 -95 -32 -33
-33 -25 -47 24 -46 34 1 50 -5 71 -24 95 -88 100 -268 9 -306 -108 -45 -218
70 -200 208 7 53 0 59 -32 26 -30 -33 -42 -71 -42 -138 l0 -58 -72 -30 c-40
-16 -82 -32 -93 -36 -16 -6 -1 -17 75 -54 94 -47 95 -47 92 -81 -6 -75 33
-181 67 -181 4 0 6 25 3 55 -8 95 49 192 124 211 37 9 95 -3 117 -25 28 -28
35 -133 13 -199 -25 -74 -72 -112 -136 -112 -51 0 -58 -7 -40 -39 12 -23 53
-40 116 -49 l49 -7 11 -55 c7 -30 18 -81 24 -114 7 -32 15 -54 20 -50 4 5 13
45 20 89 6 44 18 94 25 111 11 28 19 32 65 38 39 5 60 15 81 36 44 43 39 58
-19 52 -41 -4 -52 0 -80 23 -64 54 -91 144 -70 230 15 57 39 75 104 75 50 0
100 -31 128 -80 16 -27 21 -52 21 -108 0 -58 3 -72 14 -70 30 6 54 68 59 149
l5 78 67 20 c84 26 104 46 64 62 -16 6 -53 22 -81 35 l-53 24 0 63 c0 68 -32
150 -60 155 -12 2 -15 -12 -15 -82 0 -70 -4 -89 -21 -113 -31 -42 -80 -66
-132 -66 -37 0 -50 5 -68 26 -49 57 -53 146 -12 235 30 63 63 85 121 79 26 -2
47 0 47 5 0 39 -62 81 -113 77 -18 -2 -37 0 -43 4 -7 4 -17 37 -24 74 -17 95
-30 143 -38 143 -4 0 -14 -38 -23 -83z"/>
<path d="M5224 4326 c-3 -8 -4 -27 -2 -43 3 -25 7 -28 47 -31 81 -6 112 17 96
68 -5 17 -15 20 -71 20 -47 0 -66 -4 -70 -14z"/>
<path d="M6111 4321 c-12 -21 -15 -198 -5 -225 5 -13 22 -16 85 -16 l80 0 -3
128 -3 127 -72 3 c-63 2 -73 0 -82 -17z"/>
<path d="M3543 4211 c-10 -52 -5 -68 22 -57 10 3 12 16 8 43 -10 64 -19 69
-30 14z"/>
</g>
</svg>
